<svg width="170" height="106" viewBox="0 0 170 106" fill="none" xmlns="http://www.w3.org/2000/svg">
<rect x="0.5" y="0.5" width="169" height="89" rx="3.5" stroke="#AFB1B8"/>
<path d="M69 56.0103L76.3076 63.0276H96.6924V82.6026L104 89.6199V56.0103H69Z" fill="#AFB1B8"/>
<path d="M63 62.7319V95.3816H97V82.4036L76.5231 62.74L63 62.7319ZM90.5231 90.6058H68.3801V68.6472H69.9453V89.1189H90.5231V90.6058Z" fill="#AFB1B8"/>
<path d="M72.791 101.392L73.6089 99.7078H74.2925L73.1011 101.954V103.262H72.481V101.954L71.2871 99.7078H71.9731L72.791 101.392ZM76.3018 102.435H74.9248L74.6367 103.262H73.9946L75.3374 99.7078H75.8916L77.2368 103.262H76.5923L76.3018 102.435ZM75.0981 101.937H76.1284L75.6133 100.462L75.0981 101.937ZM78.7358 102.303C78.7358 102.139 78.7806 101.988 78.8701 101.851C78.9596 101.713 79.1362 101.549 79.3999 101.361C79.2616 101.186 79.1647 101.038 79.1094 100.916C79.0557 100.794 79.0288 100.676 79.0288 100.562C79.0288 100.284 79.1134 100.064 79.2827 99.9031C79.452 99.7403 79.6799 99.6589 79.9663 99.6589C80.2251 99.6589 80.4367 99.7354 80.6011 99.8884C80.7671 100.04 80.8501 100.228 80.8501 100.452C80.8501 100.601 80.8127 100.737 80.7378 100.863C80.6629 100.986 80.54 101.11 80.3691 101.234L80.1274 101.409L80.8135 102.22C80.9128 102.025 80.9624 101.807 80.9624 101.568H81.4775C81.4775 102.006 81.375 102.365 81.1699 102.645L81.6924 103.262H81.0039L80.8037 103.026C80.5498 103.216 80.2471 103.311 79.8955 103.311C79.5439 103.311 79.2624 103.219 79.0508 103.033C78.8408 102.846 78.7358 102.602 78.7358 102.303ZM79.9126 102.838C80.1128 102.838 80.3 102.771 80.4741 102.637L79.6978 101.722L79.6221 101.776C79.4268 101.924 79.3291 102.093 79.3291 102.283C79.3291 102.448 79.382 102.581 79.4878 102.684C79.5936 102.786 79.7352 102.838 79.9126 102.838ZM79.5854 100.548C79.5854 100.684 79.6693 100.856 79.8369 101.063L80.1079 100.877L80.1836 100.816C80.2845 100.727 80.335 100.612 80.335 100.472C80.335 100.379 80.3 100.3 80.23 100.235C80.16 100.168 80.0713 100.135 79.9639 100.135C79.8483 100.135 79.7563 100.174 79.688 100.252C79.6196 100.33 79.5854 100.429 79.5854 100.548ZM86.043 102.105C86.0072 102.484 85.8672 102.781 85.623 102.994C85.3789 103.205 85.0542 103.311 84.6489 103.311C84.3657 103.311 84.1159 103.245 83.8994 103.111C83.6846 102.976 83.5186 102.785 83.4014 102.537C83.2842 102.29 83.2231 102.003 83.2183 101.676V101.344C83.2183 101.008 83.2777 100.713 83.3965 100.457C83.5153 100.202 83.6854 100.005 83.9067 99.8665C84.1297 99.7281 84.3869 99.6589 84.6782 99.6589C85.0705 99.6589 85.3862 99.7655 85.6255 99.9788C85.8647 100.192 86.0039 100.493 86.043 100.882H85.4277C85.3984 100.627 85.3236 100.443 85.2031 100.33C85.0843 100.216 84.9093 100.159 84.6782 100.159C84.4097 100.159 84.203 100.258 84.0581 100.455C83.9149 100.65 83.8416 100.937 83.8384 101.317V101.632C83.8384 102.016 83.9067 102.309 84.0435 102.51C84.1818 102.712 84.3836 102.813 84.6489 102.813C84.8914 102.813 85.0737 102.759 85.1958 102.65C85.3179 102.541 85.3952 102.359 85.4277 102.105H86.043ZM89.4341 101.578C89.4341 101.926 89.3739 102.232 89.2534 102.496C89.133 102.758 88.9604 102.96 88.7358 103.101C88.5129 103.241 88.2557 103.311 87.9644 103.311C87.6763 103.311 87.4191 103.241 87.1929 103.101C86.9683 102.96 86.7941 102.759 86.6704 102.498C86.5483 102.238 86.4865 101.938 86.4849 101.597V101.397C86.4849 101.051 86.5459 100.745 86.668 100.479C86.7917 100.214 86.965 100.011 87.188 99.8713C87.4126 99.7297 87.6698 99.6589 87.9595 99.6589C88.2492 99.6589 88.5055 99.7289 88.7285 99.8689C88.9531 100.007 89.1265 100.207 89.2485 100.469C89.3706 100.73 89.4325 101.033 89.4341 101.38V101.578ZM88.8164 101.392C88.8164 100.998 88.7415 100.697 88.5918 100.487C88.4437 100.277 88.2329 100.172 87.9595 100.172C87.6925 100.172 87.4834 100.277 87.332 100.487C87.1823 100.695 87.1058 100.99 87.1025 101.373V101.578C87.1025 101.969 87.1782 102.27 87.3296 102.484C87.4826 102.697 87.6942 102.803 87.9644 102.803C88.2378 102.803 88.4478 102.699 88.5942 102.491C88.7424 102.283 88.8164 101.978 88.8164 101.578V101.392Z" fill="#AFB1B8"/>
</svg>
