<svg width="170" height="104" viewBox="0 0 170 104" fill="none" xmlns="http://www.w3.org/2000/svg">
<rect x="0.5" y="0.5" width="169" height="89" rx="3.5" stroke="#AFB1B8"/>
<path d="M71.3457 102.463C71.3607 102.463 71.3755 102.466 71.3891 102.472C71.4028 102.478 71.4152 102.487 71.4254 102.497L71.6312 102.716C71.4714 102.893 71.274 103.035 71.0524 103.131C70.7929 103.237 70.5133 103.288 70.2319 103.281C69.9675 103.286 69.7049 103.238 69.4603 103.141C69.2396 103.052 69.0414 102.918 68.879 102.749C68.7132 102.573 68.5855 102.366 68.5034 102.142C68.4135 101.892 68.3692 101.629 68.3723 101.364C68.3686 101.097 68.4166 100.833 68.5137 100.583C68.6036 100.357 68.7391 100.151 68.9124 99.9765C69.0881 99.8053 69.2982 99.6707 69.5297 99.5812C69.7831 99.4862 70.0528 99.439 70.3245 99.4419C70.5769 99.436 70.8279 99.4791 71.0627 99.5687C71.2664 99.6542 71.4535 99.7727 71.6157 99.9193L71.4434 100.153C71.4315 100.169 71.4167 100.184 71.3997 100.195C71.3793 100.209 71.3548 100.215 71.3302 100.213C71.3035 100.211 71.2778 100.202 71.2556 100.188L71.163 100.126L71.0344 100.046C70.9789 100.017 70.9213 99.9908 70.8621 99.969C70.7858 99.9426 70.7076 99.9219 70.628 99.9069C70.5271 99.8889 70.4246 99.8806 70.3219 99.882C70.1263 99.8796 69.9322 99.9151 69.7509 99.9864C69.5819 100.052 69.4294 100.152 69.3034 100.28C69.1751 100.415 69.0763 100.574 69.0127 100.747C68.9403 100.945 68.9046 101.154 68.9073 101.364C68.9042 101.577 68.9399 101.789 69.0127 101.99C69.0755 102.162 69.1725 102.32 69.2982 102.455C69.416 102.581 69.5621 102.68 69.7252 102.744C69.8931 102.811 70.0733 102.845 70.2551 102.843C70.3601 102.845 70.465 102.838 70.5689 102.823C70.7385 102.803 70.9012 102.746 71.0447 102.657C71.1167 102.611 71.1847 102.559 71.2479 102.502C71.2744 102.478 71.3091 102.464 71.3457 102.463V102.463Z" fill="#AFB1B8"/>
<path d="M77.2871 101.363C77.2903 101.627 77.2432 101.889 77.1482 102.136C77.0644 102.361 76.9323 102.565 76.7608 102.737C76.5892 102.908 76.382 103.042 76.1528 103.131C75.6492 103.316 75.0925 103.316 74.589 103.131C74.3613 103.041 74.1554 102.906 73.9845 102.736C73.8131 102.561 73.68 102.355 73.5936 102.129C73.4083 101.628 73.4083 101.081 73.5936 100.58C73.6813 100.354 73.8141 100.148 73.9845 99.9713C74.1568 99.8057 74.3626 99.6763 74.589 99.5909C75.0919 99.402 75.6499 99.402 76.1528 99.5909C76.3813 99.6806 76.588 99.8152 76.7598 99.9862C76.9292 100.159 77.0612 100.363 77.1482 100.585C77.2435 100.834 77.2906 101.098 77.2871 101.363ZM76.747 101.363C76.751 101.152 76.718 100.942 76.6492 100.742C76.5916 100.57 76.4979 100.412 76.374 100.277C76.2534 100.149 76.1049 100.049 75.9393 99.9837C75.5734 99.8478 75.1684 99.8478 74.8024 99.9837C74.6368 100.049 74.4884 100.149 74.3678 100.277C74.2422 100.411 74.1475 100.57 74.09 100.742C73.9591 101.147 73.9591 101.58 74.09 101.985C74.148 102.157 74.2427 102.315 74.3678 102.45C74.4885 102.577 74.637 102.676 74.8024 102.741C75.169 102.873 75.5728 102.873 75.9393 102.741C76.1048 102.676 76.2533 102.577 76.374 102.45C76.4974 102.314 76.591 102.156 76.6492 101.985C76.7183 101.785 76.7513 101.574 76.747 101.363V101.363Z" fill="#AFB1B8"/>
<path d="M81.3408 102.015L81.3948 102.154C81.4154 102.104 81.4334 102.06 81.4539 102.015C81.4736 101.968 81.4959 101.923 81.5208 101.878L82.8352 99.5689C82.8609 99.5291 82.884 99.5043 82.9098 99.4968C82.9447 99.4865 82.9813 99.4823 83.0178 99.4844H83.4062V103.24H82.9458V100.479C82.9458 100.444 82.9458 100.404 82.9458 100.362C82.9433 100.319 82.9433 100.276 82.9458 100.233L81.6237 102.574C81.6069 102.609 81.58 102.639 81.5463 102.66C81.5125 102.68 81.4733 102.691 81.4334 102.691H81.3588C81.3187 102.692 81.2794 102.681 81.2456 102.66C81.2118 102.639 81.185 102.61 81.1684 102.574L79.8078 100.218C79.8078 100.262 79.8078 100.307 79.8078 100.352C79.8078 100.397 79.8078 100.436 79.8078 100.471V103.233H79.3628V99.4844H79.7512C79.7877 99.4823 79.8243 99.4865 79.8592 99.4968C79.8911 99.5121 79.9165 99.5376 79.9312 99.5689L81.2739 101.881C81.3003 101.923 81.3227 101.968 81.3408 102.015V102.015Z" fill="#AFB1B8"/>
<path d="M86.2869 101.828V103.235H85.7725V99.4843H86.9196C87.1362 99.4802 87.3521 99.5079 87.5601 99.5663C87.7266 99.6119 87.881 99.6916 88.0128 99.7999C88.127 99.9015 88.2151 100.027 88.27 100.168C88.3307 100.321 88.3604 100.484 88.3575 100.648C88.3597 100.812 88.3274 100.975 88.2623 101.127C88.2005 101.271 88.1054 101.4 87.9845 101.503C87.8525 101.615 87.6974 101.7 87.5292 101.751C87.329 101.813 87.1195 101.842 86.9093 101.838L86.2869 101.828ZM86.2869 101.426H86.9093C87.0446 101.427 87.1792 101.408 87.308 101.368C87.4143 101.334 87.5123 101.279 87.5961 101.207C87.6734 101.138 87.7332 101.053 87.771 100.958C87.8131 100.858 87.8341 100.751 87.8327 100.643C87.8387 100.538 87.8211 100.434 87.7811 100.337C87.7412 100.24 87.6798 100.153 87.6013 100.081C87.4047 99.9325 87.1579 99.8607 86.9093 99.8795H86.2869V101.426Z" fill="#AFB1B8"/>
<path d="M93.2007 103.24H92.7943C92.7536 103.242 92.7135 103.23 92.6812 103.206C92.652 103.182 92.6291 103.152 92.6143 103.119L92.2645 102.211H90.5077L90.145 103.119C90.1317 103.152 90.1095 103.181 90.0807 103.203C90.048 103.229 90.007 103.242 89.965 103.24H89.5586L91.1019 99.4839H91.6369L93.2007 103.24ZM90.6543 101.846H92.105L91.4928 100.317C91.4461 100.202 91.4074 100.084 91.3771 99.9637L91.3179 100.16C91.2999 100.22 91.2794 100.274 91.2614 100.319L90.6543 101.846Z" fill="#AFB1B8"/>
<path d="M95.4233 99.5014C95.4541 99.5177 95.4805 99.5406 95.5005 99.5685L97.7511 102.4C97.7511 102.355 97.7511 102.311 97.7511 102.268C97.7511 102.226 97.7511 102.184 97.7511 102.144V99.484H98.2115V103.24H97.9543C97.9178 103.241 97.8816 103.234 97.8489 103.218C97.8171 103.2 97.7892 103.176 97.7666 103.148L95.5185 100.319C95.521 100.362 95.521 100.405 95.5185 100.449C95.5185 100.491 95.5185 100.528 95.5185 100.563V103.24H95.0581V99.484H95.3308C95.3626 99.4831 95.3942 99.489 95.4233 99.5014V99.5014Z" fill="#AFB1B8"/>
<path d="M102.003 101.746V103.238H101.488V101.746L100.066 99.4842H100.526C100.566 99.482 100.605 99.4934 100.637 99.5165C100.665 99.5407 100.688 99.5692 100.706 99.6011L101.596 101.06C101.632 101.122 101.663 101.18 101.689 101.234C101.715 101.289 101.735 101.341 101.753 101.393L101.82 101.232C101.845 101.173 101.874 101.115 101.908 101.06L102.785 99.5911C102.803 99.5618 102.826 99.535 102.852 99.5116C102.882 99.4858 102.922 99.4725 102.962 99.4743H103.428L102.003 101.746Z" fill="#AFB1B8"/>
<path d="M81.0859 93.1809C81.3097 93.2082 81.5361 93.2306 81.765 93.2505C85.2356 91.7501 88.1716 89.2943 90.206 86.1902C92.2404 83.0861 93.283 79.4713 93.2033 75.7977L89.3785 72.1013C90.1562 76.0125 89.7925 80.0557 88.3279 83.7785C86.8634 87.5013 84.3559 90.7569 81.0859 93.1809V93.1809Z" fill="#AFB1B8"/>
<path d="M79.7202 93.0089L79.8231 93.0288C83.3173 90.6134 85.9814 87.2405 87.4708 83.3462C88.9601 79.4519 89.2063 75.2154 88.1774 71.1844L82.7296 65.9197C84.9331 70.2472 85.82 75.0903 85.2873 79.8858C84.7546 84.6813 82.824 89.2321 79.7202 93.0089V93.0089Z" fill="#AFB1B8"/>
<path d="M98.1959 80.1379C97.2704 84.1744 95.0225 87.8147 91.7861 90.5185C90.841 91.3124 89.8214 92.0198 88.7407 92.6313C91.3761 91.8828 93.7983 90.5593 95.8207 88.763C97.8432 86.9667 99.4117 84.7455 100.405 82.2707L98.1959 80.1379Z" fill="#AFB1B8"/>
<path d="M97.3292 79.5438L94.1835 76.5037C94.1233 79.9697 93.1037 83.357 91.2306 86.3134C89.3575 89.2698 86.6993 91.6874 83.5322 93.3149H83.5477C84.2534 93.3147 84.9586 93.274 85.6594 93.1931C88.6192 92.0256 91.2339 90.1682 93.2702 87.7865C95.3064 85.4048 96.7009 82.573 97.3292 79.5438V79.5438Z" fill="#AFB1B8"/>
<path d="M80.1757 63.6994L76.4229 60.0676C73.0681 61.3205 70.1828 63.523 68.1446 66.3869C66.1065 69.2508 65.0105 72.6426 65 76.1184V76.1184C65.0126 79.9591 66.3502 83.6861 68.8012 86.7094C71.2521 89.7327 74.6764 91.8797 78.5321 92.8105C81.974 88.7579 83.9892 83.7502 84.2847 78.515C84.5803 73.2798 83.1409 68.0899 80.1757 63.6994V63.6994Z" fill="#AFB1B8"/>
<path d="M106 78.9839C105.987 74.4271 104.108 70.0607 100.773 66.8386C97.4394 63.6165 92.9213 61.8005 88.2062 61.7874V61.7874C86.0274 61.7852 83.8671 62.1737 81.835 62.9333L104.812 85.1387C105.599 83.1758 106.002 81.0889 106 78.9839V78.9839Z" fill="#AFB1B8"/>
</svg>
