<svg width="170" height="103" viewBox="0 0 170 103" fill="none" xmlns="http://www.w3.org/2000/svg">
<rect x="0.5" y="0.5" width="169" height="89" rx="3.5" stroke="#2196F3"/>
<path d="M57.4022 73.0825H57.3995C55.1372 73.0825 53.3032 74.8954 53.3032 77.1316V77.1343C53.3032 79.3705 55.1372 81.1833 57.3995 81.1833H57.4022C59.6645 81.1833 61.4985 79.3705 61.4985 77.1343V77.1316C61.4985 74.8954 59.6645 73.0825 57.4022 73.0825Z" fill="#2196F3"/>
<path d="M87.6368 71.7881C87.6304 68.682 86.3795 65.705 84.1579 63.5084C81.9363 61.3119 78.925 60.0747 75.7828 60.0676V60.0676C72.6397 60.0733 69.6269 61.3098 67.4042 63.5065C65.1814 65.7032 63.9298 68.6811 63.9233 71.7881V71.7881V88.9163C63.9233 88.9163 87.6341 86.3058 87.6368 71.7907V71.7881Z" fill="#2196F3"/>
<path d="M45 94.5382C45.0057 96.6994 45.8766 98.7705 47.4223 100.299C48.968 101.827 51.0629 102.689 53.2492 102.695V102.695C55.4351 102.689 57.5296 101.828 59.0752 100.3C60.6208 98.772 61.492 96.7016 61.4984 94.5409V94.5409V82.6228C61.4984 82.6228 45 84.4405 45 94.5382ZM53.2492 96.6736C52.822 96.6736 52.4043 96.5483 52.0491 96.3137C51.6938 96.079 51.417 95.7455 51.2535 95.3554C51.09 94.9652 51.0472 94.5358 51.1305 94.1216C51.2139 93.7074 51.4196 93.3269 51.7217 93.0282C52.0238 92.7296 52.4087 92.5262 52.8278 92.4438C53.2468 92.3614 53.6812 92.4037 54.0759 92.5654C54.4706 92.727 54.808 93.0007 55.0453 93.3518C55.2827 93.703 55.4094 94.1158 55.4094 94.5382C55.4105 94.8193 55.3554 95.0978 55.2473 95.3578C55.1392 95.6178 54.9803 95.8542 54.7796 96.0533C54.5789 96.2524 54.3404 96.4104 54.0777 96.5183C53.8151 96.6261 53.5336 96.6816 53.2492 96.6816V96.6736Z" fill="#2196F3"/>
<path d="M70.0889 95.2874H68.4014V97.0305H67.5225V92.7649H70.2998V93.4768H68.4014V94.5784H70.0889V95.2874ZM74.3135 94.9944C74.3135 95.4143 74.2393 95.7825 74.0908 96.0989C73.9424 96.4153 73.7295 96.6594 73.4521 96.8313C73.1768 97.0032 72.8604 97.0891 72.5029 97.0891C72.1494 97.0891 71.834 97.0042 71.5566 96.8342C71.2793 96.6643 71.0645 96.4221 70.9121 96.1077C70.7598 95.7913 70.6826 95.428 70.6807 95.0178V94.8069C70.6807 94.387 70.7559 94.0178 70.9062 93.6995C71.0586 93.3792 71.2725 93.134 71.5479 92.9641C71.8252 92.7922 72.1416 92.7063 72.4971 92.7063C72.8525 92.7063 73.168 92.7922 73.4434 92.9641C73.7207 93.134 73.9346 93.3792 74.085 93.6995C74.2373 94.0178 74.3135 94.386 74.3135 94.804V94.9944ZM73.4229 94.801C73.4229 94.3538 73.3428 94.0139 73.1826 93.7815C73.0225 93.5491 72.7939 93.4329 72.4971 93.4329C72.2021 93.4329 71.9746 93.5481 71.8145 93.7786C71.6543 94.0071 71.5732 94.343 71.5713 94.7864V94.9944C71.5713 95.4299 71.6514 95.7678 71.8115 96.0081C71.9717 96.2483 72.2021 96.3684 72.5029 96.3684C72.7979 96.3684 73.0244 96.2532 73.1826 96.0227C73.3408 95.7903 73.4209 95.4524 73.4229 95.009V94.801ZM77.1641 95.9114C77.1641 95.7454 77.1055 95.6184 76.9883 95.5305C76.8711 95.4407 76.6602 95.3469 76.3555 95.2493C76.0508 95.1497 75.8096 95.052 75.6318 94.9563C75.1475 94.6946 74.9053 94.342 74.9053 93.8987C74.9053 93.6682 74.9697 93.4631 75.0986 93.2834C75.2295 93.1018 75.416 92.9602 75.6582 92.8586C75.9023 92.7571 76.1758 92.7063 76.4785 92.7063C76.7832 92.7063 77.0547 92.762 77.293 92.8733C77.5312 92.9827 77.7158 93.1379 77.8467 93.3391C77.9795 93.5403 78.0459 93.7688 78.0459 94.0247H77.167C77.167 93.8293 77.1055 93.678 76.9824 93.5706C76.8594 93.4612 76.6865 93.4065 76.4639 93.4065C76.249 93.4065 76.082 93.4524 75.9629 93.5442C75.8438 93.634 75.7842 93.7532 75.7842 93.9016C75.7842 94.0403 75.8535 94.1565 75.9922 94.2502C76.1328 94.344 76.3389 94.4319 76.6104 94.5139C77.1104 94.6643 77.4746 94.8508 77.7031 95.0735C77.9316 95.2961 78.0459 95.5735 78.0459 95.9055C78.0459 96.2747 77.9062 96.5647 77.627 96.7756C77.3477 96.9846 76.9717 97.0891 76.499 97.0891C76.1709 97.0891 75.8721 97.0295 75.6025 96.9104C75.333 96.7893 75.127 96.6243 74.9844 96.4153C74.8438 96.2063 74.7734 95.9641 74.7734 95.6887H75.6553C75.6553 96.1594 75.9365 96.3948 76.499 96.3948C76.708 96.3948 76.8711 96.3528 76.9883 96.2688C77.1055 96.1829 77.1641 96.0637 77.1641 95.9114ZM81.8545 93.4768H80.5479V97.0305H79.6689V93.4768H78.3799V92.7649H81.8545V93.4768ZM84.9248 95.1819H83.2373V96.3245H85.2178V97.0305H82.3584V92.7649H85.2119V93.4768H83.2373V94.4934H84.9248V95.1819ZM87.3125 95.469H86.6123V97.0305H85.7334V92.7649H87.3184C87.8223 92.7649 88.2109 92.8772 88.4844 93.1018C88.7578 93.3264 88.8945 93.6438 88.8945 94.054C88.8945 94.345 88.8311 94.5881 88.7041 94.7834C88.5791 94.9768 88.3887 95.1311 88.1328 95.2463L89.0557 96.9895V97.0305H88.1123L87.3125 95.469ZM86.6123 94.7571H87.3213C87.542 94.7571 87.7129 94.7014 87.834 94.5901C87.9551 94.4768 88.0156 94.3215 88.0156 94.1243C88.0156 93.9231 87.958 93.7649 87.8428 93.6497C87.7295 93.5344 87.5547 93.4768 87.3184 93.4768H86.6123V94.7571ZM91.9385 95.5276V97.0305H91.0596V92.7649H92.7236C93.0439 92.7649 93.3252 92.8235 93.5674 92.9407C93.8115 93.0579 93.999 93.2249 94.1299 93.4417C94.2607 93.6565 94.3262 93.9016 94.3262 94.177C94.3262 94.595 94.1826 94.925 93.8955 95.1672C93.6104 95.4075 93.2148 95.5276 92.709 95.5276H91.9385ZM91.9385 94.8157H92.7236C92.9561 94.8157 93.1328 94.761 93.2539 94.6516C93.377 94.5422 93.4385 94.386 93.4385 94.1829C93.4385 93.9739 93.377 93.8049 93.2539 93.676C93.1309 93.5471 92.9609 93.4807 92.7441 93.4768H91.9385V94.8157ZM97.499 95.1819H95.8115V96.3245H97.792V97.0305H94.9326V92.7649H97.7861V93.4768H95.8115V94.4934H97.499V95.1819ZM101.577 93.4768H100.271V97.0305H99.3916V93.4768H98.1025V92.7649H101.577V93.4768ZM104.647 95.1819H102.96V96.3245H104.94V97.0305H102.081V92.7649H104.935V93.4768H102.96V94.4934H104.647V95.1819ZM107.035 95.469H106.335V97.0305H105.456V92.7649H107.041C107.545 92.7649 107.934 92.8772 108.207 93.1018C108.48 93.3264 108.617 93.6438 108.617 94.054C108.617 94.345 108.554 94.5881 108.427 94.7834C108.302 94.9768 108.111 95.1311 107.855 95.2463L108.778 96.9895V97.0305H107.835L107.035 95.469ZM106.335 94.7571H107.044C107.265 94.7571 107.436 94.7014 107.557 94.5901C107.678 94.4768 107.738 94.3215 107.738 94.1243C107.738 93.9231 107.681 93.7649 107.565 93.6497C107.452 93.5344 107.277 93.4768 107.041 93.4768H106.335V94.7571ZM111.5 95.9114C111.5 95.7454 111.441 95.6184 111.324 95.5305C111.207 95.4407 110.996 95.3469 110.691 95.2493C110.387 95.1497 110.146 95.052 109.968 94.9563C109.483 94.6946 109.241 94.342 109.241 93.8987C109.241 93.6682 109.306 93.4631 109.435 93.2834C109.565 93.1018 109.752 92.9602 109.994 92.8586C110.238 92.7571 110.512 92.7063 110.814 92.7063C111.119 92.7063 111.391 92.762 111.629 92.8733C111.867 92.9827 112.052 93.1379 112.183 93.3391C112.315 93.5403 112.382 93.7688 112.382 94.0247H111.503C111.503 93.8293 111.441 93.678 111.318 93.5706C111.195 93.4612 111.022 93.4065 110.8 93.4065C110.585 93.4065 110.418 93.4524 110.299 93.5442C110.18 93.634 110.12 93.7532 110.12 93.9016C110.12 94.0403 110.189 94.1565 110.328 94.2502C110.469 94.344 110.675 94.4319 110.946 94.5139C111.446 94.6643 111.811 94.8508 112.039 95.0735C112.268 95.2961 112.382 95.5735 112.382 95.9055C112.382 96.2747 112.242 96.5647 111.963 96.7756C111.684 96.9846 111.308 97.0891 110.835 97.0891C110.507 97.0891 110.208 97.0295 109.938 96.9104C109.669 96.7893 109.463 96.6243 109.32 96.4153C109.18 96.2063 109.109 95.9641 109.109 95.6887H109.991C109.991 96.1594 110.272 96.3948 110.835 96.3948C111.044 96.3948 111.207 96.3528 111.324 96.2688C111.441 96.1829 111.5 96.0637 111.5 95.9114Z" fill="#2196F3"/>
</svg>
