<svg width="170" height="105" viewBox="0 0 170 105" fill="none" xmlns="http://www.w3.org/2000/svg">
<rect x="0.5" y="0.5" width="169" height="89" rx="3.5" stroke="#AFB1B8"/>
<path d="M85.7404 79.6991C85.3224 79.0801 85.1225 78.3486 85.1699 77.6123V74.5869C85.1699 73.6594 85.359 72.9546 85.7372 72.4724C86.1154 71.9902 86.7649 71.7502 87.6858 71.7522C88.5512 71.7522 89.1654 71.9574 89.5287 72.3678C89.9249 72.8914 90.1176 73.5317 90.0735 74.1775V74.8885H88.5255V74.1683C88.531 73.9326 88.516 73.6968 88.4807 73.4635C88.4584 73.3039 88.3804 73.1563 88.2595 73.0449C88.1006 72.9247 87.9003 72.8665 87.6987 72.8818C87.4866 72.8666 87.2762 72.928 87.1089 73.0541C86.9741 73.1776 86.8842 73.3395 86.8525 73.5158C86.8081 73.7627 86.7878 74.0131 86.7916 74.2637V77.9355C86.7672 78.2897 86.8355 78.6442 86.9904 78.9666C87.0673 79.0756 87.1743 79.1621 87.2993 79.2164C87.4243 79.2707 87.5625 79.2908 87.6987 79.2743C87.897 79.29 88.0937 79.2303 88.2467 79.1081C88.3728 78.9879 88.454 78.831 88.4775 78.6619C88.5136 78.4183 88.5297 78.1723 88.5255 77.9263V77.1814H90.0735V77.8616C90.117 78.5349 89.9289 79.2031 89.5383 79.7637C89.1825 80.2131 88.5768 80.4377 87.6858 80.4377C86.7949 80.4377 86.1218 80.1977 85.7404 79.6991Z" fill="#AFB1B8"/>
<path d="M92.1856 79.7299C91.7946 79.259 91.5991 78.5726 91.5991 77.6647V74.4822C91.5991 73.5835 91.7946 72.9033 92.1856 72.4416C92.5766 71.98 93.2304 71.7502 94.147 71.7522C95.0572 71.7522 95.7078 71.982 96.0988 72.4416C96.4898 72.9033 96.6885 73.5835 96.6885 74.4822V77.6647C96.6885 78.5634 96.4898 79.2528 96.0924 79.7268C95.695 80.2008 95.0476 80.4377 94.147 80.4377C93.2464 80.4377 92.5798 80.1977 92.1856 79.7299ZM94.8681 78.9666C95.0081 78.6716 95.0719 78.3485 95.054 78.0248V74.1283C95.072 73.8108 95.0093 73.4939 94.8713 73.2049C94.7928 73.0936 94.6832 73.0056 94.5551 72.9512C94.4271 72.8968 94.2856 72.8781 94.147 72.8971C94.0079 72.8785 93.8662 72.8975 93.7377 72.9518C93.6093 73.0062 93.4991 73.0938 93.4195 73.2049C93.2786 73.4931 93.2147 73.8104 93.2336 74.1283V78.0432C93.2141 78.367 93.278 78.6905 93.4195 78.985C93.5097 79.0843 93.6211 79.1639 93.746 79.2184C93.8709 79.2729 94.0066 79.3011 94.1438 79.3011C94.281 79.3011 94.4167 79.2729 94.5416 79.2184C94.6665 79.1639 94.7779 79.0843 94.8681 78.985V78.9666Z" fill="#AFB1B8"/>
<path d="M98.5505 71.845H100.217L101.47 77.7168L102.752 71.845H104.374L104.537 80.3203H103.339L103.211 74.43L101.973 80.3203H101.012L99.7299 74.4085L99.6114 80.3203H98.3999L98.5505 71.845Z" fill="#AFB1B8"/>
<path d="M106.406 71.845H109.002C110.498 71.845 111.245 72.6472 111.245 74.2515C111.245 75.7882 110.458 76.5555 108.883 76.5535H107.999V80.3203H106.396L106.406 71.845ZM108.624 75.4671C108.782 75.4864 108.943 75.4725 109.095 75.4263C109.247 75.38 109.387 75.3026 109.505 75.1994C109.689 74.9132 109.77 74.577 109.736 74.2423C109.744 73.9838 109.719 73.7252 109.659 73.473C109.636 73.3887 109.596 73.3096 109.541 73.2404C109.486 73.1712 109.417 73.1132 109.339 73.0698C109.116 72.9673 108.87 72.9207 108.624 72.9344H108.002V75.4671H108.624Z" fill="#AFB1B8"/>
<path d="M113.556 71.845H115.277L117.043 80.3203H115.549L115.2 78.3661H113.665L113.306 80.3203H111.79L113.556 71.845ZM115.027 77.3844L114.428 73.8269L113.828 77.3844H115.027Z" fill="#AFB1B8"/>
<path d="M118.469 71.845H119.591L121.738 76.6797V71.845H123.068V80.3203H122.001L119.841 75.2733V80.3203H118.466L118.469 71.845Z" fill="#AFB1B8"/>
<path d="M126.184 77.0888L124.398 71.8569H125.902L126.991 75.2177L128.014 71.8569H129.485L127.722 77.0888V80.3203H126.184V77.0888Z" fill="#AFB1B8"/>
<path d="M88.2146 84.0259V84.469H86.907V87.9128H86.3589V84.469H85.0449V84.0259H88.2146Z" fill="#AFB1B8"/>
<path d="M92.3141 87.9131H91.891C91.8481 87.9157 91.8057 87.9025 91.7724 87.8762C91.7404 87.8536 91.7159 87.8226 91.7019 87.787L91.3238 86.8637H89.5097L89.1316 87.787C89.1208 87.8256 89.1011 87.8613 89.0739 87.8916C89.0403 87.9174 88.9982 87.9305 88.9553 87.9285H88.5322L90.1347 84.0417H90.6924L92.3141 87.9131ZM89.6604 86.4698H91.1731L90.5321 84.888C90.4848 84.7684 90.4452 84.6461 90.4135 84.5218C90.3911 84.5957 90.3719 84.6665 90.3526 84.728L90.295 84.8911L89.6604 86.4698Z" fill="#AFB1B8"/>
<path d="M95.0766 87.5315C95.177 87.5365 95.2775 87.5365 95.3779 87.5315C95.4645 87.5229 95.5503 87.5075 95.6343 87.4853C95.7128 87.4668 95.7899 87.4432 95.865 87.4145C95.9356 87.3868 96.0061 87.353 96.0798 87.3191V86.445H95.4388C95.4229 86.4458 95.4071 86.4435 95.3922 86.4382C95.3773 86.433 95.3637 86.4248 95.3523 86.4142C95.3417 86.4054 95.3334 86.3945 95.3279 86.3823C95.3223 86.37 95.3197 86.3567 95.3202 86.3434V86.0448H96.5637V87.5346C96.4622 87.6043 96.355 87.666 96.2432 87.7192C96.129 87.7734 96.0099 87.8177 95.8875 87.8516C95.7564 87.8886 95.6224 87.9154 95.4869 87.9316C95.3315 87.9482 95.1753 87.9564 95.0189 87.9562C94.7425 87.9585 94.4683 87.9093 94.2113 87.8116C93.9714 87.7189 93.7534 87.5807 93.5703 87.4053C93.3919 87.228 93.2514 87.0189 93.1569 86.7897C93.0559 86.5321 93.0059 86.2586 93.0095 85.9833C93.0061 85.7063 93.055 85.431 93.1537 85.1707C93.2459 84.9404 93.3866 84.7308 93.5671 84.5551C93.75 84.3803 93.9681 84.2431 94.2081 84.1519C94.4825 84.0528 94.7738 84.0037 95.067 84.0073C95.2162 84.0071 95.3652 84.0184 95.5125 84.0411C95.6428 84.0615 95.7706 84.0945 95.8939 84.1396C96.006 84.1801 96.1134 84.2316 96.2144 84.2935C96.3126 84.3542 96.4058 84.4222 96.4932 84.4966L96.3394 84.7367C96.3273 84.7587 96.3094 84.7771 96.2874 84.7901C96.2654 84.8031 96.2402 84.8102 96.2144 84.8106C96.1789 84.8095 96.1445 84.7988 96.115 84.7798C96.067 84.7552 96.0157 84.7244 95.958 84.6875C95.8898 84.6464 95.818 84.6114 95.7433 84.5828C95.6477 84.546 95.5491 84.5172 95.4484 84.4966C95.3142 84.4729 95.1779 84.4616 95.0414 84.4628C94.8299 84.4605 94.62 84.4971 94.4228 84.5705C94.2445 84.6392 94.0838 84.7442 93.9517 84.8783C93.8189 85.018 93.7174 85.1825 93.6536 85.3615C93.5105 85.7825 93.5105 86.2364 93.6536 86.6573C93.7238 86.8401 93.833 87.0068 93.9741 87.1467C94.1056 87.2801 94.2651 87.385 94.4421 87.4545C94.6458 87.5217 94.8619 87.5479 95.0766 87.5315V87.5315Z" fill="#AFB1B8"/>
<path d="M100.185 87.4697H101.935V87.9128H99.6499V84.0259H100.198L100.185 87.4697Z" fill="#AFB1B8"/>
<path d="M103.756 87.9128H103.208V84.0259H103.756V87.9128Z" fill="#AFB1B8"/>
<path d="M105.794 84.0444C105.826 84.0622 105.855 84.0863 105.877 84.1151L108.22 87.0454C108.217 86.9992 108.217 86.953 108.22 86.9069C108.22 86.8638 108.22 86.8207 108.22 86.7807V84.0105H108.698V87.9133H108.422C108.381 87.9165 108.34 87.9091 108.303 87.8918C108.27 87.8724 108.241 87.8474 108.217 87.8179L105.877 84.8908C105.877 84.937 105.877 84.9801 105.877 85.0231C105.877 85.0662 105.877 85.1062 105.877 85.1432V87.9133H105.419V84.0259H105.704C105.735 84.026 105.766 84.0322 105.794 84.0444V84.0444Z" fill="#AFB1B8"/>
<path d="M112.732 84.0259V84.4537H110.79V85.7371H112.364V86.1495H110.79V87.476H112.732V87.9038H110.226V84.0259H112.732Z" fill="#AFB1B8"/>
<path d="M55.3035 60.021L79.6385 66.6563V89.9075L55.3035 83.2753V60.021ZM53.7427 58.0391V84.4048L81.196 91.8926V65.5299L53.7427 58.0391Z" fill="#AFB1B8"/>
<path d="M68.4565 104.132L41 96.6378V70.2749L68.4565 77.7658V104.132Z" fill="#AFB1B8"/>
<path d="M54.1978 59.7225L78.2155 66.2746L68.0014 76.0858L43.9806 69.5306L54.1978 59.7225ZM53.7427 58.0391L41 70.2754L68.4565 77.7661L81.196 65.5298L53.7427 58.0391Z" fill="#AFB1B8"/>
<path d="M70.0015 102.649L81.1962 91.8958L70.0015 88.8398V102.649Z" fill="#AFB1B8"/>
</svg>
